<svg xmlns="http://www.w3.org/2000/svg" data-name="Layer 1" viewBox="0 0 32 32"><path d="M26.5,6h-3a.5.5,0,0,0,0,1h3a.5.5,0,0,0,0-1ZM16,23a4,4,0,1,0-4-4A4,4,0,0,0,16,23Zm0-7a3,3,0,1,1-3,3A3,3,0,0,1,16,16Zm11.94-6H27V9h.5A1.5,1.5,0,0,0,29,7.5v-2A1.5,1.5,0,0,0,27.5,4h-5A1.5,1.5,0,0,0,21,5.5v2A1.5,1.5,0,0,0,22.5,9H23v1H13V9.5A1.5,1.5,0,0,0,11.5,8h-1A1.5,1.5,0,0,0,9,9.5V10H8V8.5A1.5,1.5,0,0,0,6.5,7h-1A1.5,1.5,0,0,0,4,8.5V10a3.06,3.06,0,0,0-3,3.05V25.81A2.19,2.19,0,0,0,3.19,28H28.81A2.19,2.19,0,0,0,31,25.81V13.06A3.06,3.06,0,0,0,27.94,10ZM22.5,8a.5.5,0,0,1-.5-.5v-2a.5.5,0,0,1,.5-.5h5a.5.5,0,0,1,.5.5v2a.5.5,0,0,1-.5.5ZM26,9v1H24V9ZM10,9.5a.5.5,0,0,1,.5-.5h1a.5.5,0,0,1,.5.5V10H10Zm-5-1A.5.5,0,0,1,5.5,8h1a.5.5,0,0,1,.5.5V10H5ZM2,16H3v6H2Zm28,9.81A1.19,1.19,0,0,1,28.81,27H3.19A1.19,1.19,0,0,1,2,25.81V23h8.26a7,7,0,0,0,11.48,0H30ZM4,22V16H5v6Zm2,0V16H7v6Zm3.68,0H8V16H9.68a7,7,0,0,0,0,6Zm.42-3a6.52,6.52,0,0,1,.81-3.16,6,6,0,0,1,10.61.82,6.58,6.58,0,0,1,0,4.68,6,6,0,0,1-10.61.82A6.52,6.52,0,0,1,10.1,19Zm12.35-2.73c0-.09-.07-.18-.1-.27H24v6H22.35c0-.09.06-.18.1-.27a7.05,7.05,0,0,0,0-5.46ZM25,22V16h1v6Zm2,0V16h1v6Zm3,0H29V16h1Zm0-7H21.74a7,7,0,0,0-11.48,0H2V13.06A2.07,2.07,0,0,1,4.06,11H27.94A2.07,2.07,0,0,1,30,13.06Z"/></svg>