<svg xmlns="http://www.w3.org/2000/svg"  viewBox="0 0 64 64" width="128px" height="128px"><g data-name="19-Mail"><circle cx="32" cy="32" r="31" fill="#359e04"/><circle cx="32" cy="32" r="29" fill="#42c505"/><path fill="#359e04" d="M37,52A29,29,0,0,1,9.552,13.643a29,29,0,1,0,49.9,27.714A28.939,28.939,0,0,1,37,52Z"/><path fill="#4ce306" d="M35.623,7.625a2.633,2.633,0,0,0-.585,1.137c-.267,1.337.919,2.51,2.082,3.257a34.554,34.554,0,0,0,3.294,1.792l4.562,2.272c1.655.825,3.554,2.042,5.449,1.907a3.221,3.221,0,0,0,1.41-.349c1.63-.955,1.279-3.074.574-4.492A9.966,9.966,0,0,0,49,9.552C45.961,7.459,38.7,3.9,35.623,7.625Z"/><path fill="#4ce306" d="M52.106,19.422a1.1,1.1,0,0,0,.011.964,2.123,2.123,0,0,0,.461.514,5.809,5.809,0,0,0,.976.758A2.382,2.382,0,0,0,54.809,22a1.117,1.117,0,0,0,.61-.181.946.946,0,0,0,.22-.241,2.414,2.414,0,0,0-.664-3.208C53.821,17.449,52.534,18.419,52.106,19.422Z"/><path fill="#c7ccf0" d="M37.63,33.63,32,39l-5.63-5.37L20,27.57V16a2.006,2.006,0,0,1,2-2H42a2.006,2.006,0,0,1,2,2V27.57Z"/><path fill="#707789" d="M20,20v7.57l-7.37-7.02A1.944,1.944,0,0,1,14,20Z"/><path fill="#707789" d="M51.37,20.55,44,27.57V20h6A1.944,1.944,0,0,1,51.37,20.55Z"/><path fill="#f7f7ff" d="M37.63,33.63,51.41,47.41A1.955,1.955,0,0,1,50,48H14a1.955,1.955,0,0,1-1.41-.59L26.37,33.63,32,39Z"/><path fill="#fff" d="M20,27.57l6.37,6.06L12.59,47.41A1.955,1.955,0,0,1,12,46V22a1.97,1.97,0,0,1,.63-1.45Z"/><path fill="#fff" d="M52,22V46a1.955,1.955,0,0,1-.59,1.41L37.63,33.63,44,27.57l7.37-7.02A1.97,1.97,0,0,1,52,22Z"/><path fill="#308f04" d="M12.59,47.41A1.955,1.955,0,0,1,12,46V23H11a1.944,1.944,0,0,0-1.37.55A1.97,1.97,0,0,0,9,25V49a2.015,2.015,0,0,0,2,2H47a2.015,2.015,0,0,0,2-2V48H14A1.955,1.955,0,0,1,12.59,47.41Z"/><path fill="#e1e7f7" d="M15,45l-2.41,2.41A1.955,1.955,0,0,0,14,48H50a1.955,1.955,0,0,0,1.41-.59L49,45Z"/><path fill="#e1e7f7" d="M14,45a2.015,2.015,0,0,1-2-2v3a1.955,1.955,0,0,0,.59,1.41L15,45Z"/><path fill="#e1e7f7" d="M50,45H49l2.41,2.41A1.955,1.955,0,0,0,52,46V43a2.015,2.015,0,0,1-2,2Z"/><polygon fill="#b8bce0" points="32 36 26.37 30.63 20 24.57 20 27.57 26.37 33.63 32 39 37.63 33.63 44 27.57 44 24.57 37.63 30.63 32 36"/><path d="M42,13H22a3,3,0,0,0-3,3v3H14a3,3,0,0,0-3,3V46a3,3,0,0,0,3,3H50a3,3,0,0,0,3-3V22a3,3,0,0,0-3-3H45V16A3,3,0,0,0,42,13ZM22,15H42a1,1,0,0,1,1,1V27.141L32,37.618,21,27.141V16A1,1,0,0,1,22,15ZM45,28h0l6-5.715v23.3L39.065,33.651,45,28ZM19,28h0l5.934,5.651L13,45.586v-23.3Zm7.383,7.032,4.927,4.693a1,1,0,0,0,1.38,0l4.927-4.693L49.586,47H14.414ZM19,25.236,14.553,21H19ZM49.447,21,45,25.236V21Z"/><rect width="16" height="2" x="24" y="18"/><rect width="16" height="2" x="24" y="22"/><rect width="16" height="2" x="24" y="26"/><path d="M61.752,28.127l1.984-.254c-.089-.688-.2-1.384-.335-2.065l-1.963.384C61.564,26.831,61.669,27.482,61.752,28.127Z"/><path d="M32,2A30.027,30.027,0,0,1,60.992,24.257l1.932-.516A32.011,32.011,0,0,0,1.7,21.677l1.893.644A30,30,0,0,1,32,2Z"/><path d="M32,62A30.027,30.027,0,0,1,3.008,24.258l-1.932-.516A32.026,32.026,0,0,0,32,64c1.03,0,2.071-.05,3.1-.148L34.9,61.861C33.943,61.953,32.966,62,32,62Z"/><path d="M63.935,29.938l-2,.126Q62,31.024,62,32A29.861,29.861,0,0,1,36.84,61.611l.32,1.975A31.855,31.855,0,0,0,64,32Q64,30.96,63.935,29.938Z"/></g></svg>