<svg xmlns="http://www.w3.org/2000/svg" xmlns:svg="http://www.w3.org/2000/svg" style="clip-rule:evenodd;fill-rule:evenodd;image-rendering:optimizeQuality;shape-rendering:geometricPrecision;text-rendering:geometricPrecision" id="svg16" width="611.383" height="95.262" version="1.1" viewBox="0 0 161.762 25.205" xml:space="preserve"><metadata id="metadata20"/><defs id="defs4"><style id="style2" type="text/css">.fil0{fill:#181818}</style></defs><g id="Layer_x0020_1" transform="translate(-0.0218,-271.7839)" style="fill:#000;fill-opacity:1"><metadata id="CorelCorpID_0Corel-Layer"/><path id="path7" d="m 16.7432,287.708 c -3.517,0 -12.5356,-1.4132 -12.5356,-6.7971 0,-3.7607 5.614,-6.7967 12.5356,-6.7967 6.9217,0 12.5288,3.036 12.5288,6.7967 0,3.7491 -5.6071,6.7971 -12.5288,6.7971 z M 18.63,271.7839 c -10.2789,0 -18.6082,4.1511 -18.6082,9.2643 0,5.1243 8.3293,9.2707 18.6081,9.2707 10.2696,0 18.6015,-4.1464 18.6015,-9.2707 0,-5.1132 -8.3319,-9.2643 -18.6015,-9.2643 z" class="fil0" style="fill:#000;fill-opacity:1"/><path id="path9" d="m 141.296,287.708 c -3.5168,0 -12.537,-1.4128 -12.537,-6.7971 0,-3.7607 5.6144,-6.7967 12.537,-6.7967 6.9208,0 12.5275,3.036 12.5275,6.7967 1e-4,3.7491 -5.6067,6.7971 -12.5275,6.7971 z m 1.8853,-15.9241 c -10.2775,0 -18.6073,4.1511 -18.6073,9.2643 0,5.1243 8.3298,9.2707 18.6072,9.2707 10.2709,0 18.6024,-4.1464 18.6024,-9.2707 0,-5.1132 -8.3316,-9.2643 -18.6024,-9.2643 z" class="fil0" style="fill:#000;fill-opacity:1"/><path id="path11" d="m 60.5814,271.784 c -3.0945,0 -6.0089,0.3785 -8.5764,1.0432 v 2.3354 c 1.9371,-0.6629 4.2305,-1.0483 6.6897,-1.0483 6.9212,0 12.5286,3.036 12.5286,6.7967 0,3.7491 -5.6074,6.7971 -12.5286,6.7971 -4.7656,0 -8.9111,-1.4457 -11.0313,-3.569 v -11.8063 h -6.5701 v 24.6559 h 6.5701 v -9.269 c 3.3468,1.6083 7.898,2.5993 12.918,2.5993 10.2697,0 18.6013,-4.1464 18.6013,-9.2707 0,-5.1132 -8.3316,-9.2643 -18.6013,-9.2643 z" class="fil0" style="fill:#000;fill-opacity:1"/><path id="path13" d="m 102.532,271.784 c -3.0945,0 -6.0085,0.3785 -8.5753,1.0432 v 2.3354 c 1.9357,-0.6629 4.2291,-1.0483 6.689,-1.0483 6.9216,0 12.5289,3.036 12.5289,6.7967 0,3.7491 -5.6074,6.7971 -12.5289,6.7971 -4.7649,0 -8.9112,-1.4457 -11.0317,-3.569 v -11.8063 h -6.5694 v 24.6559 h 6.5694 v -9.269 c 3.3465,1.6083 7.8987,2.5993 12.918,2.5993 10.2705,0 18.6016,-4.1464 18.6016,-9.2707 1e-4,-5.1132 -8.3312,-9.2643 -18.6016,-9.2643 z" class="fil0" style="fill:#000;fill-opacity:1"/></g></svg>