<svg xmlns="http://www.w3.org/2000/svg" viewBox="0 0 64 64"><path d="M45 50H37a1 1 0 0 1 0-2h8a3 3 0 0 0 3-3V31a1 1 0 0 1 2 0V45A5 5 0 0 1 45 50zM33 50H19a5 5 0 0 1-5-5V19a5 5 0 0 1 5-5H45a5 5 0 0 1 5 5v8a1 1 0 0 1-2 0V19a3 3 0 0 0-3-3H19a3 3 0 0 0-3 3V45a3 3 0 0 0 3 3H33a1 1 0 0 1 0 2z"/><path d="M44,45H20a1,1,0,0,1-1-1V31a1,1,0,0,1,2,0V43H43V21H21v1a1,1,0,0,1-2,0V20a1,1,0,0,1,1-1H44a1,1,0,0,1,1,1V44A1,1,0,0,1,44,45Z"/><path d="M20 28a1 1 0 0 1-1-1V26a1 1 0 0 1 2 0v1A1 1 0 0 1 20 28zM33.56 33H28a1 1 0 0 1-1-1V27a1 1 0 0 1 1-1h5.56A3.44 3.44 0 0 1 37 29.44v.12A3.44 3.44 0 0 1 33.56 33zM29 31h4.56A1.45 1.45 0 0 0 35 29.56v-.12A1.45 1.45 0 0 0 33.56 28H29z"/><path d="M34.5,38H28a1,1,0,0,1-1-1V32a1,1,0,0,1,1-1h6.5a3.5,3.5,0,0,1,0,7ZM29,36h5.5a1.5,1.5,0,0,0,0-3H29Z"/><path d="M28,38H27a1,1,0,0,1,0-2V28a1,1,0,0,1,0-2h1a1,1,0,0,1,1,1V37A1,1,0,0,1,28,38Z"/><path d="M33 28H29a1 1 0 0 1-1-1V25a1 1 0 0 1 2 0v1h2V25a1 1 0 0 1 2 0v2A1 1 0 0 1 33 28zM33 40a1 1 0 0 1-1-1V38H30v1a1 1 0 0 1-2 0V37a1 1 0 0 1 1-1h4a1 1 0 0 1 1 1v2A1 1 0 0 1 33 40zM32 8a2 2 0 1 1 2-2A2 2 0 0 1 32 8zm0-2z"/><path d="M32 16a1 1 0 0 1-1-1V7a1 1 0 0 1 2 0v8A1 1 0 0 1 32 16zM44 8a2 2 0 1 1 2-2A2 2 0 0 1 44 8zm0-2z"/><path d="M44 16a1 1 0 0 1-1-1V7a1 1 0 0 1 2 0v8A1 1 0 0 1 44 16zM20 8a2 2 0 1 1 2-2A2 2 0 0 1 20 8zm0-2z"/><path d="M20 16a1 1 0 0 1-1-1V7a1 1 0 0 1 2 0v8A1 1 0 0 1 20 16zM26 16a1 1 0 0 1-1-1V10a1 1 0 0 1 2 0v5A1 1 0 0 1 26 16zM38 16a1 1 0 0 1-1-1V10a1 1 0 0 1 2 0v5A1 1 0 0 1 38 16zM32 60a2 2 0 1 1 2-2A2 2 0 0 1 32 60zm0-2z"/><path d="M32 58a1 1 0 0 1-1-1V49a1 1 0 0 1 2 0v8A1 1 0 0 1 32 58zM20 60a2 2 0 1 1 2-2A2 2 0 0 1 20 60zm0-2z"/><path d="M20 58a1 1 0 0 1-1-1V49a1 1 0 0 1 2 0v8A1 1 0 0 1 20 58zM44 60a2 2 0 1 1 2-2A2 2 0 0 1 44 60zm0-2z"/><path d="M44 58a1 1 0 0 1-1-1V49a1 1 0 0 1 2 0v8A1 1 0 0 1 44 58zM38 55a1 1 0 0 1-1-1V49a1 1 0 0 1 2 0v5A1 1 0 0 1 38 55zM26 55a1 1 0 0 1-1-1V49a1 1 0 0 1 2 0v5A1 1 0 0 1 26 55z"/><circle cx="6" cy="32" r="2"/><path d="M15,33H7a1,1,0,0,1,0-2h8a1,1,0,0,1,0,2Z"/><circle cx="6" cy="20" r="2"/><path d="M15,21H7a1,1,0,0,1,0-2h8a1,1,0,0,1,0,2Z"/><circle cx="6" cy="44" r="2"/><path d="M15 45H7a1 1 0 0 1 0-2h8a1 1 0 0 1 0 2zM15 39H10a1 1 0 0 1 0-2h5a1 1 0 0 1 0 2zM15 27H10a1 1 0 0 1 0-2h5a1 1 0 0 1 0 2z"/><circle cx="58" cy="32" r="2"/><path d="M57,33H49a1,1,0,0,1,0-2h8a1,1,0,0,1,0,2Z"/><circle cx="58" cy="44" r="2"/><path d="M57,45H49a1,1,0,0,1,0-2h8a1,1,0,0,1,0,2Z"/><circle cx="58" cy="20" r="2"/><path d="M57 21H49a1 1 0 0 1 0-2h8a1 1 0 0 1 0 2zM54 27H49a1 1 0 0 1 0-2h5a1 1 0 0 1 0 2zM54 39H49a1 1 0 0 1 0-2h5a1 1 0 0 1 0 2z"/></svg>