<svg xmlns="http://www.w3.org/2000/svg" data-name="Layer 1" viewBox="0 0 125 125"><rect width="2.525" height="10.11" x="36.082" y="30.52" fill="#4d5c7d"/><rect width="6.624" height="10.11" x="34.032" y="35.576" fill="#ebf0f3"/><rect width="2.525" height="10.11" x="48.66" y="30.52" fill="#4d5c7d"/><rect width="6.624" height="10.11" x="46.61" y="35.576" fill="#ebf0f3"/><rect width="2.525" height="10.11" x="61.237" y="30.52" fill="#4d5c7d"/><rect width="6.624" height="10.11" x="59.188" y="35.576" fill="#ebf0f3"/><rect width="2.525" height="10.11" x="73.815" y="30.52" fill="#4d5c7d"/><rect width="6.624" height="10.11" x="71.766" y="35.576" fill="#ebf0f3"/><rect width="2.525" height="10.11" x="86.393" y="30.52" fill="#4d5c7d"/><rect width="6.624" height="10.11" x="84.344" y="35.576" fill="#ebf0f3"/><rect width="2.525" height="10.11" x="86.393" y="84.369" fill="#4d5c7d" transform="rotate(180 87.656 89.424)"/><rect width="6.624" height="10.11" x="84.344" y="79.314" fill="#ebf0f3" transform="rotate(180 87.656 84.37)"/><rect width="2.525" height="10.11" x="73.815" y="84.369" fill="#4d5c7d" transform="rotate(180 75.078 89.424)"/><rect width="6.624" height="10.11" x="71.766" y="79.314" fill="#ebf0f3" transform="rotate(180 75.078 84.37)"/><rect width="2.525" height="10.11" x="61.237" y="84.369" fill="#4d5c7d" transform="rotate(180 62.5 89.424)"/><rect width="6.624" height="10.11" x="59.188" y="79.314" fill="#ebf0f3" transform="rotate(180 62.5 84.37)"/><rect width="2.525" height="10.11" x="48.66" y="84.369" fill="#4d5c7d" transform="rotate(180 49.922 89.424)"/><rect width="6.624" height="10.11" x="46.61" y="79.314" fill="#ebf0f3" transform="rotate(180 49.922 84.37)"/><rect width="2.525" height="10.11" x="36.082" y="84.369" fill="#4d5c7d" transform="rotate(180 37.344 89.424)"/><rect width="6.624" height="10.11" x="34.032" y="79.314" fill="#ebf0f3" transform="rotate(180 37.344 84.37)"/><rect width="76.968" height="42.408" x="24.016" y="41.296" fill="#474c5b"/><rect width="76.968" height="26.879" x="24.016" y="49.06" fill="#4d5c7d"/><path fill="#d5d6db" d="M69.22838,63.33935a3.363,3.363,0,0,0-.99826-.87293,4.26884,4.26884,0,0,0-1.00722-.42976A3.56538,3.56538,0,0,0,68.736,60.725a3.26863,3.26863,0,0,0,.49689-1.73689,3.53242,3.53242,0,0,0-.56405-1.89357,3.40232,3.40232,0,0,0-1.55782-1.343,5.62276,5.62276,0,0,0-1.88015-.41183V53.54918H63.34173v1.76375h-.9535V53.54918h-1.8846v1.76375h-.80132v-.00448H57.59388v1.69212h1.48621V67.986H57.59388v1.69212h1.48621v.00448h1.42354v1.76823h1.8846V69.68259h.9535v1.76823h1.88911V69.66917a8.35471,8.35471,0,0,0,1.64736-.22831,4.34734,4.34734,0,0,0,1.57127-.7073,3.63406,3.63406,0,0,0,1.052-1.33847,4.16641,4.16641,0,0,0,.42976-1.87567A3.52071,3.52071,0,0,0,69.22838,63.33935Zm-8.24576-6.32982h2.86944a8.12733,8.12733,0,0,1,2.18455.20145,1.73241,1.73241,0,0,1,.98036.74309,2.32008,2.32008,0,0,1,.3447,1.26238,2.05841,2.05841,0,0,1-.36707,1.25343,2.02744,2.02744,0,0,1-1.09228.71626,6.91729,6.91729,0,0,1-1.813.16563H60.98262ZM67.675,66.72809a2.02859,2.02859,0,0,1-.7252.79681,3.12893,3.12893,0,0,1-1.09672.39393,8.43819,8.43819,0,0,1-1.29373.06716H60.98262V63.04836H64.3042a7.23677,7.23677,0,0,1,2.104.23727,2.406,2.406,0,0,1,.761.41632,2.14449,2.14449,0,0,1,.38049.42079,2.39158,2.39158,0,0,1,.41183,1.39668A2.51152,2.51152,0,0,1,67.675,66.72809Z"/></svg>