<svg xmlns="http://www.w3.org/2000/svg" enable-background="new 0 0 64 64" viewBox="0 0 64 64"><path fill="#33495c" d="M27.12,9.05c-0.2,0-0.4-0.06-0.57-0.18c-0.45-0.31-0.56-0.91-0.25-1.35l5.14-7.11
				c0.32-0.44,0.94-0.55,1.39-0.24c0.45,0.31,0.56,0.91,0.25,1.35l-5.14,7.11C27.74,8.91,27.43,9.05,27.12,9.05z"/><path fill="#33495c" d="M59.94,31.79c-0.48,0-0.9-0.34-0.99-0.81c-1.21-7.03-5.17-13.19-11.15-17.33c-5.45-3.78-12-5.47-18.6-4.86
				l3.77,3.81c0.38,0.39,0.37,1-0.03,1.37c-0.4,0.37-1.03,0.36-1.41-0.03l-5.14-5.2c-0.26-0.26-0.34-0.64-0.23-0.98
				c0.12-0.34,0.42-0.59,0.79-0.65c7.78-1.26,15.6,0.5,22.01,4.95c6.42,4.45,10.66,11.05,11.96,18.59c0.09,0.53-0.28,1.03-0.82,1.12
				C60.05,31.79,59.99,31.79,59.94,31.79z"/><path fill="#33495c" d="M31.74,64c-6.1,0-12.04-1.83-17.1-5.34C8.22,54.21,3.98,47.61,2.68,40.07c-0.09-0.53,0.28-1.03,0.82-1.12
				c0.54-0.09,1.06,0.27,1.15,0.8c1.21,7.03,5.17,13.19,11.15,17.33c5.98,4.14,13.26,5.78,20.52,4.61
				c7.25-1.17,13.6-5.01,17.87-10.81c4.27-5.8,5.96-12.87,4.76-19.9c-0.09-0.53,0.28-1.03,0.82-1.12c0.54-0.09,1.06,0.27,1.15,0.8
				c1.29,7.54-0.52,15.12-5.1,21.34c-4.58,6.22-11.39,10.34-19.17,11.6C35.01,63.87,33.37,64,31.74,64z"/><path fill="#33495c" d="M45.7 37.67H35.01c-.55 0-1-.43-1-.97s.45-.97 1-.97H45.7c.55 0 1 .43 1 .97S46.25 37.67 45.7 37.67zM32 34.75c-.55 0-1-.43-1-.97V21.84c0-.54.45-.97 1-.97.55 0 1 .43 1 .97v11.95C33 34.32 32.55 34.75 32 34.75z"/><path fill="#33495c" d="M31.98,40.6c-0.25,0-0.51-0.02-0.76-0.07c-1.59-0.3-2.86-1.53-3.17-3.06c-0.23-1.17,0.09-2.36,0.86-3.26
				c0.93-1.09,2.34-1.63,3.87-1.33c1.59,0.3,2.86,1.53,3.16,3.07c0.05,0.25,0.08,0.5,0.08,0.75c0,1.16-0.53,2.26-1.45,3
				C33.83,40.29,32.92,40.6,31.98,40.6z M32.01,34.74c-0.6,0-1.17,0.26-1.55,0.71c-0.39,0.46-0.55,1.05-0.43,1.65
				c0.15,0.75,0.8,1.38,1.58,1.52c0.61,0.11,1.21-0.04,1.69-0.42c0.47-0.37,0.73-0.93,0.73-1.51c0-0.13-0.01-0.25-0.04-0.38
				c-0.15-0.76-0.8-1.39-1.58-1.54C32.26,34.76,32.14,34.74,32.01,34.74z"/><path fill="#f6b64d" d="M32 18.72c-.55 0-1-.43-1-.97v-1.37c0-.54.45-.97 1-.97s1 .43 1 .97v1.37C33 18.29 32.55 18.72 32 18.72zM32 58c-.55 0-1-.43-1-.97v-1.37c0-.54.45-.97 1-.97s1 .43 1 .97v1.37C33 57.57 32.55 58 32 58zM13.41 36.71c0 .55-.43 1-.97 1h-1.37c-.54 0-.97-.45-.97-1s.43-1 .97-1h1.37C12.97 35.71 13.41 36.15 13.41 36.71zM53.59 36.71c0 .55-.43 1-.97 1h-1.37c-.54 0-.97-.45-.97-1s.43-1 .97-1h1.37C53.16 35.71 53.59 36.15 53.59 36.71z"/></svg>