<svg xmlns="http://www.w3.org/2000/svg" width="144" height="144" viewBox="0 0 48 48"><path fill="#009688" d="M37,39H11l-6,6V11c0-3.3,2.7-6,6-6h26c3.3,0,6,2.7,6,6v22C43,36.3,40.3,39,37,39z"/><path fill="#fff" d="M13 18H15V26H13z"/><path fill="#fff" d="M13 18H15V26H13z" transform="rotate(-60 14 22)"/><path fill="#fff" d="M10 21H18V23H10z" transform="rotate(-30 13.999 22)"/><g><path fill="#fff" d="M23 18H25V26H23z"/><path fill="#fff" d="M23 18H25V26H23z" transform="rotate(-60 24 22)"/><path fill="#fff" d="M20 21H28V23H20z" transform="rotate(-30 23.999 22)"/></g><g><path fill="#fff" d="M33 18H35V26H33z"/><path fill="#fff" d="M33 18H35V26H33z" transform="rotate(-60 34 22.001)"/><path fill="#fff" d="M30 21H38V23H30z" transform="rotate(-30 33.998 22.001)"/></g></svg>