<svg xmlns="http://www.w3.org/2000/svg" viewBox="0 0 32 32"><g data-name="Layer 2"><path d="M22,31H10V24.34a2.16,2.16,0,0,1,2.16-2.16h7.68A2.16,2.16,0,0,1,22,24.34ZM12,29h8V24.34a.16.16,0,0,0-.16-.16H12.16a.16.16,0,0,0-.16.16Z"/><path d="M26.78,31H5.22a2.33,2.33,0,0,1-2.33-2.33V3.33A2.33,2.33,0,0,1,5.22,1H19.88a2.31,2.31,0,0,1,1.61.64L28.4,8.29A2.3,2.3,0,0,1,29.11,10V28.67A2.33,2.33,0,0,1,26.78,31ZM5.22,3a.33.33,0,0,0-.33.33V28.67a.33.33,0,0,0,.33.33H26.78a.33.33,0,0,0,.33-.33V10a.32.32,0,0,0-.1-.23L20.11,3.09A.32.32,0,0,0,19.88,3Z"/><path d="M16,20a6,6,0,1,1,6-6A6,6,0,0,1,16,20Zm0-10a4,4,0,1,0,4,4A4,4,0,0,0,16,10Z"/></g></svg>